<svg xmlns="http://www.w3.org/2000/svg" width="274" height="122" fill="none" viewBox="0 0 274 122">
  <path fill="#000" d="M43.311 27.813c-.265-2.482-1.383-4.413-3.352-5.796-1.95-1.383-4.489-2.074-7.614-2.074-2.197 0-4.081.332-5.653.994-1.572.663-2.775 1.563-3.608 2.7-.834 1.136-1.26 2.433-1.279 3.891 0 1.213.275 2.264.824 3.154.568.89 1.335 1.648 2.301 2.273a16.22 16.22 0 003.21 1.534c1.175.416 2.359.767 3.552 1.05l5.454 1.364a37.572 37.572 0 016.335 2.074c2.046.872 3.874 1.97 5.483 3.296a14.623 14.623 0 013.864 4.8c.947 1.876 1.42 4.073 1.42 6.592 0 3.409-.87 6.41-2.613 9.005-1.742 2.576-4.261 4.593-7.557 6.052-3.276 1.439-7.244 2.159-11.903 2.159-4.527 0-8.457-.701-11.79-2.103-3.315-1.401-5.91-3.447-7.784-6.136-1.856-2.69-2.86-5.966-3.012-9.83h10.37c.151 2.027.776 3.713 1.875 5.057 1.098 1.345 2.528 2.349 4.29 3.012 1.78.663 3.768.994 5.966.994 2.291 0 4.299-.34 6.022-1.023 1.743-.7 3.106-1.666 4.091-2.897.985-1.25 1.487-2.709 1.506-4.375-.02-1.516-.464-2.766-1.335-3.75-.872-1.004-2.093-1.838-3.665-2.5-1.553-.682-3.371-1.288-5.455-1.819l-6.62-1.704c-4.79-1.231-8.579-3.097-11.363-5.597-2.765-2.519-4.147-5.861-4.147-10.028 0-3.428.928-6.43 2.784-9.006 1.875-2.576 4.422-4.574 7.642-5.994 3.22-1.44 6.865-2.16 10.937-2.16 4.129 0 7.746.72 10.852 2.16 3.126 1.42 5.578 3.4 7.358 5.937 1.78 2.52 2.7 5.417 2.756 8.694H43.311zM63.191 70V26.364h9.829v7.414h.511c.91-2.5 2.415-4.45 4.517-5.852 2.103-1.42 4.612-2.13 7.529-2.13 2.954 0 5.445.72 7.471 2.159 2.046 1.42 3.485 3.361 4.319 5.823h.454c.966-2.424 2.595-4.356 4.886-5.795 2.311-1.458 5.048-2.188 8.211-2.188 4.015 0 7.291 1.27 9.829 3.807 2.538 2.538 3.807 6.24 3.807 11.108V70h-10.313V42.301c0-2.708-.719-4.687-2.159-5.937-1.439-1.27-3.2-1.904-5.284-1.904-2.481 0-4.422.777-5.824 2.33-1.382 1.534-2.073 3.532-2.073 5.994V70H88.815V41.875c0-2.254-.681-4.053-2.045-5.398-1.345-1.344-3.106-2.017-5.284-2.017-1.478 0-2.822.379-4.034 1.137-1.212.738-2.178 1.79-2.898 3.153-.72 1.345-1.08 2.917-1.08 4.716V70H63.19z"/>
  <path fill="#0085FF" d="M134.987 70V26.364h10.284V70h-10.284zm5.171-49.83c-1.629 0-3.031-.54-4.205-1.619-1.174-1.098-1.761-2.415-1.761-3.949 0-1.553.587-2.869 1.761-3.949 1.174-1.098 2.576-1.647 4.205-1.647 1.647 0 3.049.549 4.204 1.647 1.174 1.08 1.762 2.396 1.762 3.95 0 1.533-.588 2.85-1.762 3.948-1.155 1.08-2.557 1.62-4.204 1.62zm25.973-8.352V70h-10.284V11.818h10.284zm29.893 59.034c-4.375 0-8.153-.909-11.335-2.727-3.163-1.837-5.597-4.432-7.301-7.784-1.705-3.371-2.557-7.34-2.557-11.904 0-4.488.852-8.427 2.557-11.818 1.723-3.409 4.129-6.06 7.216-7.954 3.087-1.913 6.714-2.87 10.88-2.87 2.69 0 5.228.436 7.614 1.307a17.21 17.21 0 016.364 3.977c1.856 1.8 3.314 4.091 4.375 6.876 1.06 2.765 1.591 6.06 1.591 9.886v3.153h-35.767v-6.931h25.909c-.019-1.97-.445-3.722-1.279-5.256a9.294 9.294 0 00-3.494-3.665c-1.477-.89-3.201-1.335-5.171-1.335-2.102 0-3.948.511-5.539 1.534a10.57 10.57 0 00-3.722 3.977c-.871 1.629-1.316 3.419-1.335 5.37v6.05c0 2.538.464 4.717 1.392 6.535.928 1.799 2.225 3.181 3.892 4.147 1.667.947 3.617 1.42 5.852 1.42 1.496 0 2.851-.207 4.063-.624a9.013 9.013 0 003.153-1.904c.89-.833 1.563-1.865 2.017-3.096l9.602 1.08c-.606 2.537-1.761 4.753-3.465 6.647-1.686 1.875-3.845 3.334-6.478 4.375-2.632 1.023-5.644 1.534-9.034 1.534zm34.439-.227c-1.723 0-3.201-.606-4.432-1.818-1.231-1.212-1.837-2.69-1.818-4.432-.019-1.705.587-3.163 1.818-4.375 1.231-1.212 2.709-1.818 4.432-1.818 1.667 0 3.116.606 4.347 1.818 1.25 1.212 1.884 2.67 1.903 4.375a6.062 6.062 0 01-.909 3.153 6.527 6.527 0 01-2.273 2.273 5.913 5.913 0 01-3.068.824z"/>
  <path stroke="#0085FF" stroke-width="12" d="M64.705 86.076c31.304 23.041 116.32 54.47 205.959-4.145"/>
</svg>
